<svg xmlns="http://www.w3.org/2000/svg" width="151.914" height="75.766" viewBox="0 0 151.914 75.766"><defs><style>.a{fill:#1f1f1f;}.b{fill:#fff;}.c{opacity:0.2;}.d{fill:#009d64;}</style></defs><g transform="translate(-115.565 -291.214)"><g transform="translate(225.175 324.675)"><path class="a" d="M220.569,351.539A21.147,21.147,0,1,1,247.7,364.118,21.148,21.148,0,0,1,220.569,351.539Z" transform="translate(-219.272 -323.11)"/><g transform="translate(1.156 1.091)"><path class="b" d="M257.092,333.25a19.995,19.995,0,1,1-27.68-5.778A20,20,0,0,1,257.092,333.25Z" transform="translate(-220.365 -324.139)"/><g transform="translate(0.151 0.075)"><path class="a" d="M236.931,346.829l6.177-7.9.141.11-6.177,7.9-.141-.111Z" transform="translate(-219.574 -323.375)"/><path class="a" d="M239.029,353.4h0l.055-.171a32.294,32.294,0,0,0,3.156.788h0a21.982,21.982,0,0,0,6.188.294l.122.187-.08.029c-4.27.6-9.435-1.127-9.44-1.127Z" transform="translate(-219.454 -322.561)"/><path class="a" d="M252.589,349.493a24.424,24.424,0,0,0-1.693-6.943h0a18.778,18.778,0,0,0-1.317-2.7h0l.151-.1a23.946,23.946,0,0,1,3.037,9.728h0l-.178.016Z" transform="translate(-218.854 -323.329)"/><path class="a" d="M229.408,345.5a21.776,21.776,0,0,1-2.8-8.29h0l.179-.019a22.871,22.871,0,0,0,.542,2.815h0a18.359,18.359,0,0,0,2.232,5.4h0c.161.245.33.484.509.713h0l-.142.111c-.183-.235-.355-.478-.517-.726Z" transform="translate(-220.162 -323.474)"/><path class="a" d="M234.823,331.28a25.843,25.843,0,0,0-3.327.045h0l-.018-.179c.007,0,5.753-.553,9.55,1.281h0l-.078.162a16.445,16.445,0,0,0-6.127-1.31Z" transform="translate(-219.884 -323.823)"/><path class="a" d="M234.889,361.064a10.33,10.33,0,0,1-1.547-4.978h.179a9.3,9.3,0,0,0,.2,1.587h0a9.605,9.605,0,0,0,1.317,3.294h0q.179.276.391.544h0l-.141.11c-.145-.182-.278-.368-.4-.556Z" transform="translate(-219.778 -322.399)"/><path class="a" d="M252.693,334.327a5.952,5.952,0,0,0-1.448.078h0l-.039-.174a8.452,8.452,0,0,1,5.119.869h0l-.078.162a9.205,9.205,0,0,0-3.553-.934Z" transform="translate(-218.761 -323.648)"/><path class="a" d="M246.041,329.931a15.036,15.036,0,0,0-1.9-4.094h0c-.157-.241-.328-.484-.507-.728h0l.072-.054q.273.369.51.732h0a15.1,15.1,0,0,1,1.914,4.122h0l-.087.022Z" transform="translate(-219.192 -324.165)"/><path class="a" d="M222.588,350.884l.079-.16a10.773,10.773,0,0,0,2.946.54h0c1.137.1,2.135.132,2.137.131h0l-.005.18c-.008,0-4-.118-5.157-.691Z" transform="translate(-220.39 -322.704)"/><path class="a" d="M220.534,346.49c-.321-6.227,2.447-9.7,2.451-9.709h0l.07.055a10.64,10.64,0,0,0-1.334,2.5h0a16.958,16.958,0,0,0-1.1,7.15h0l-.089,0Z" transform="translate(-220.508 -323.498)"/><path class="a" d="M230.433,328.115a23.59,23.59,0,0,1,8.577-3.9s-5.447.891-8.708,3.7Z" transform="translate(-219.951 -324.213)"/><path class="a" d="M255.879,349.128a6.744,6.744,0,0,0,2.049-3.3,8,8,0,0,1-1.915,3.643Z" transform="translate(-218.495 -322.983)"/><path class="a" d="M249.059,357.386a18.4,18.4,0,0,1-3.97,3.721,18.028,18.028,0,0,0,4.228-3.516Z" transform="translate(-219.109 -322.325)"/></g><g transform="translate(0.04)"><path class="a" d="M222.419,337.894c.237-3.53,2.865-7.248,2.865-7.248a15.326,15.326,0,0,1,5.783-3.194l1.357,4.035c-2.7,2.2-5.506,6.743-5.506,6.743Z" transform="translate(-220.288 -323.954)"/><path class="a" d="M229.36,344.957s6.712,1.316,8.418,1.2c0,0,1.689,5.959,2.534,7.689,0,0-3.254,2.986-6.571,3.587a18.8,18.8,0,0,1-6.758-5.638S227.884,347.064,229.36,344.957Z" transform="translate(-220.028 -322.958)"/><path class="a" d="M247.342,354.737s4.135-3.276,5.307-6.828a15.8,15.8,0,0,0,4.133.865s-.572,4.731-2.289,6.614a14.048,14.048,0,0,1-6.091,3.365A13.118,13.118,0,0,0,247.342,354.737Z" transform="translate(-218.87 -322.79)"/><path class="a" d="M239.805,332.413s2.075,5.35,2.717,7.641c0,0,5.476.626,8.12,1.178,0,0,2.293-4.783,1.779-6.659a15.386,15.386,0,0,0-6.345-5.551A9.833,9.833,0,0,0,239.805,332.413Z" transform="translate(-219.299 -323.865)"/><path class="a" d="M240.227,332.494s1.97,5.083,2.581,7.258c0,0,5.2.6,7.714,1.119,0,0,2.178-4.544,1.69-6.325a14.618,14.618,0,0,0-6.028-5.274A9.341,9.341,0,0,0,240.227,332.494Z" transform="translate(-219.275 -323.85)"/><path class="a" d="M220.4,345.075A18.145,18.145,0,0,0,223.576,354l.056.082a8.517,8.517,0,0,1-.458-2.91A22.466,22.466,0,0,1,220.4,345.075Z" transform="translate(-220.403 -322.951)"/><path class="a" d="M235.016,360.578a11.367,11.367,0,0,1-2.8.169,20.111,20.111,0,0,0,12.146.9C242.109,361.933,238.016,362.155,235.016,360.578Z" transform="translate(-219.731 -322.069)"/><path class="a" d="M258.059,339.84a19.977,19.977,0,0,0-2.69-6.792,4.8,4.8,0,0,1,.317,2.076A33.364,33.364,0,0,1,258.059,339.84Z" transform="translate(-218.413 -323.636)"/><path class="a" d="M244.268,325.491c1.429-.308,3.615.579,5.18,1.365a20.145,20.145,0,0,0-11.631-2.655A27.361,27.361,0,0,1,244.268,325.491Z" transform="translate(-219.412 -324.142)"/></g><g class="c" transform="translate(2.081 7.67)"><path class="a" d="M238.029,345.893l4.3-5.482a1.732,1.732,0,0,1,1.441-.586l5.9.8c.49.067.487.093-.006.059l-5.611-.387a2.064,2.064,0,0,0-1.489.607l-4.491,5.025C237.742,346.3,237.723,346.283,238.029,345.893Z" transform="translate(-221.454 -330.92)"/><path class="a" d="M229.347,345.392s-2.557-4.641-2.506-7.671l-4.22-.235,3.87.518A19.337,19.337,0,0,0,229.347,345.392Z" transform="translate(-222.318 -331.053)"/><path class="a" d="M222.337,337.619a12.319,12.319,0,0,1,2.226-6.22A10.08,10.08,0,0,0,222.337,337.619Z" transform="translate(-222.335 -331.399)"/><path class="a" d="M239.491,353.668s4.631,1.517,8.287,1.052a11.016,11.016,0,0,1,.939,3.506,16.329,16.329,0,0,0-1.111-3.251A16.779,16.779,0,0,1,239.491,353.668Z" transform="translate(-221.358 -330.132)"/><path class="a" d="M252.516,348.331a26.346,26.346,0,0,0-2.433-7.559,46.171,46.171,0,0,1,2.09,6.954,2.443,2.443,0,0,1-.164,1.1,21.122,21.122,0,0,1-4.652,6.1A16.135,16.135,0,0,0,252.516,348.331Z" transform="translate(-220.91 -330.866)"/><path class="a" d="M250.221,340.775s2.1-4.155,1.743-6.331C251.964,334.444,252.7,336.958,250.221,340.775Z" transform="translate(-220.747 -331.226)"/></g></g></g><path class="d" d="M228.911,327.052a24.316,24.316,0,0,1,15.375-6.325c-16.931-7.36-74.241-28.066-121.818,4.541C122.468,325.268,171.249,300.522,228.911,327.052Z" transform="translate(0.393 0.674)"/><path class="b" d="M223.676,334.117a24.237,24.237,0,0,1,3.26-5.2c-11.539-4.719-60.451-21.908-111.371,1.8,0,0,50.42-22.01,107.962,3.737C223.578,334.348,223.623,334.231,223.676,334.117Z" transform="translate(0 1.302)"/><path class="d" d="M221.307,339.5c-10.144-5.179-53.63-25-96.4-8.568,0,0,46.194-11.418,97.476,21.374A24.2,24.2,0,0,1,221.307,339.5Z" transform="translate(0.531 1.647)"/><g transform="matrix(1, 0.017, -0.017, 1, 137.768, 290.319)"><g transform="translate(0 0)"><path class="b" d="M8.674,0c.111,1.081.168,1.619.284,2.689-1.162.42-1.741.636-2.895,1.081.319,2.414.487,3.6.839,5.948-1.082.354-1.621.537-2.7.913-.388-2.266-.575-3.417-.934-5.753-1.146.469-1.717.71-2.856,1.2C.246,5.115.164,4.629,0,3.65,3.432,2.077,5.168,1.348,8.674,0Z" transform="translate(0 10.008)"/><path class="b" d="M8.86,0c.156,3.959.255,5.906.489,9.734-1.1.255-1.649.388-2.745.666-.115-1.427-.17-2.144-.274-3.59-1.188.337-1.781.513-2.964.876.13,1.4.2,2.1.338,3.481-1.092.3-1.636.458-2.725.782C.555,8.452.358,6.67,0,3.035,1.148,2.6,1.724,2.392,2.878,1.982c.113,1.434.172,2.147.3,3.562,1.2-.391,1.8-.579,3-.944-.1-1.457-.144-2.192-.23-3.67C7.11.546,7.692.36,8.86,0Z" transform="translate(9.471 6.668)"/><path class="b" d="M8.19,0c-.023,1.282-.033,1.919-.049,3.19-2.074.458-3.108.706-5.168,1.239.007.338.012.506.019.843,2.049-.518,3.078-.759,5.14-1.2,0,.985-.005,1.475,0,2.452-2.028.4-3.041.619-5.057,1.094.01.334.015.5.025.834,2-.459,3.011-.669,5.027-1.055,0,1.255,0,1.879,0,3.123-3.082.517-4.62.819-7.681,1.511C.225,8.173.136,6.212,0,2.224,3.254,1.241,4.894.8,8.19,0Z" transform="translate(19.144 4.197)"/><path class="b" d="M8.058,7.4c-.129,1.4-.191,2.1-.311,3.486-3.1.2-4.653.35-7.747.727C.157,7.25.26,5.037.515.551,1.71.318,2.308.208,3.508,0c-.239,3.207-.345,4.8-.534,7.945C5,7.691,6.021,7.583,8.058,7.4Z" transform="translate(33.459 2.202)"/><path class="b" d="M9.76,2.257a3.786,3.786,0,0,1-.042.5C9.3,5.427,9.1,6.756,8.713,9.4a3.792,3.792,0,0,1-.937,2.043,2.255,2.255,0,0,1-1.656.853c-1.676.024-2.514.049-4.19.124A1.614,1.614,0,0,1,.6,11.843,2.456,2.456,0,0,1,0,10.273a3.6,3.6,0,0,1,.008-.465c.234-2.5.357-3.753.619-6.282a3.619,3.619,0,0,1,.9-2.045A2.739,2.739,0,0,1,3.286.462C5.1.253,6.01.162,7.831.007A1.572,1.572,0,0,1,9.238.576,2.441,2.441,0,0,1,9.76,2.257ZM6.632,3.767c-1.255.087-1.881.137-3.134.252-.23,1.929-.342,2.89-.556,4.8,1.212-.076,1.819-.108,3.032-.159C6.228,6.711,6.36,5.733,6.632,3.767Z" transform="translate(42.208 0.511)"/><path class="b" d="M10.677,2.536a4.524,4.524,0,0,1-.077.527C9.73,7.111,9.314,9.122,8.518,13.11,7.406,13.034,6.85,13,5.737,12.949c.655-3.586,1-5.391,1.711-9.027-1.255,0-1.882.011-3.136.04-.639,3.577-.945,5.352-1.525,8.877C1.673,12.809,1.115,12.8,0,12.792Q.92,6.527,1.973.279C4.742.1,6.129.049,8.906,0a1.538,1.538,0,0,1,1.365.707A2.743,2.743,0,0,1,10.677,2.536Z" transform="translate(51.289 0)"/><path class="b" d="M11.6.293c-.467,1.664-.7,2.493-1.154,4.148C8.015,4.236,6.8,4.158,4.36,4.054,3.856,6.2,3.609,7.272,3.125,9.4c1.211.086,1.816.135,3.024.247.111-.451.167-.676.279-1.128-.513-.044-.768-.066-1.281-.106.3-1.257.448-1.887.753-3.149,1.7.1,2.554.169,4.254.322-.569,2.113-.849,3.165-1.4,5.266a4.573,4.573,0,0,1-1.222,2.175,2.149,2.149,0,0,1-1.762.738c-1.661-.2-2.493-.286-4.159-.435A1.547,1.547,0,0,1,.378,12.5a3.1,3.1,0,0,1-.364-1.865,4.506,4.506,0,0,1,.074-.526c.583-2.8.884-4.205,1.5-7.033A4.311,4.311,0,0,1,2.767.889,2.605,2.605,0,0,1,4.656,0C7.434.054,8.824.112,11.6.293Z" transform="translate(61.111 0.004)"/><path class="b" d="M12.845,4.2a6,6,0,0,1-.179.594c-.323.881-.484,1.321-.8,2.2a3.961,3.961,0,0,1-1.241,1.579,3.471,3.471,0,0,1,.079,1.588c-.019.082-.036.168-.056.252-.32.873-.48,1.31-.8,2.181A5.2,5.2,0,0,1,8.373,14.85a2.081,2.081,0,0,1-1.843.633c-2.6-.6-3.906-.873-6.53-1.351Q2.123,7.052,4.329,0c2.908.319,4.36.515,7.256.976A1.518,1.518,0,0,1,12.8,2.031,3.607,3.607,0,0,1,12.845,4.2ZM7.815,9.824C6.479,9.56,5.809,9.436,4.469,9.2c-.153.476-.229.713-.382,1.189,1.33.238,1.993.365,3.318.635C7.569,10.546,7.651,10.306,7.815,9.824Zm1.563-4.59C8,4.993,7.306,4.881,5.922,4.673L5.531,5.866c1.374.215,2.059.33,3.429.576C9.126,5.959,9.21,5.717,9.378,5.234Z" transform="translate(75.169 0.891)"/><path class="b" d="M8.516,16.612c-1.066-.343-1.6-.509-2.675-.83.192-.829.287-1.242.479-2.069C5.293,13.42,4.778,13.278,3.747,13c-.417.754-.625,1.13-1.037,1.88-1.081-.3-1.623-.439-2.71-.712Q3.8,7.014,7.86,0c1.812.354,2.716.544,4.52.954Q10.481,8.791,8.516,16.612ZM7.226,9.842c.44-1.951.658-2.924,1.091-4.871-1.043,1.805-1.556,2.7-2.564,4.5C6.343,9.613,6.637,9.688,7.226,9.842Z" transform="translate(84.188 2.804)"/><path class="b" d="M9.51,13.1c-.874,1.844-1.306,2.765-2.166,4.6C4.432,16.569,2.961,16.046,0,15.084Q3.137,7.513,6.413,0C7.611.3,8.208.45,9.4.772,7.456,5.051,6.5,7.183,4.637,11.432,6.6,12.062,7.571,12.394,9.51,13.1Z" transform="translate(93.074 4.451)"/><path class="b" d="M9.685,13.821c-1,1.879-1.5,2.818-2.487,4.693C4.348,17.2,2.907,16.579,0,15.43Q3.654,7.681,7.45,0C8.634.372,9.224.564,10.4.961,8.159,5.328,7.059,7.5,4.9,11.845,6.825,12.6,7.782,12.995,9.685,13.821Z" transform="translate(101.146 7.008)"/></g></g><path class="a" d="M179.268,307.453" transform="translate(3.626 0.674)"/></g></svg>